<?xml version="1.0" encoding="utf-8"?>
<!-- Generator: Adobe Illustrator 22.0.1, SVG Export Plug-In . SVG Version: 6.00 Build 0)  -->
<svg version="1.1" id="Layer_1" xmlns="http://www.w3.org/2000/svg" xmlns:xlink="http://www.w3.org/1999/xlink" x="0px" y="0px"
	 viewBox="0 0 302.2 127.2" style="enable-background:new 0 0 302.2 127.2;" xml:space="preserve">
<style type="text/css">
	.st0{fill:#010101;}
	.st1{fill:#C02033;stroke:#010101;stroke-width:0.25;stroke-miterlimit:10;}
	.st2{fill:#FFFFFF;stroke:#010101;stroke-width:0.25;stroke-miterlimit:10;}
	.st3{fill:#213064;stroke:#010101;stroke-width:0.25;stroke-miterlimit:10;}
	.st4{fill:#FFFFFF;}
	.st5{fill:#6AA3D8;stroke:#010101;stroke-width:0.25;stroke-miterlimit:10;}
	.st6{fill:#F6D7C5;}
	.st7{fill:#DDB926;}
	.st8{fill:#A93824;}
	.st9{fill:#593C38;}
	.st10{font-family:'MyriadPro-Regular';}
	.st11{font-size:12px;}
</style>
<g>
	<path class="st0" d="M44.6,50h-3.2V43c-0.6,0.8-1.3,1.6-2,2.4C35.6,49.1,31,51,25.6,51c-5.3,0-9.9-1.9-13.7-5.7
		C8.1,41.5,6.2,37,6.2,31.6c0-5.4,1.9-10,5.7-13.8c3.8-3.8,8.4-5.7,13.7-5.7c5.4,0,10,1.9,13.8,5.7c0.7,0.7,1.4,1.5,2,2.4v-4.9h3.2
		V50z M41.4,34.8v-6.3c-0.6-3.1-2.1-5.9-4.4-8.2c-3.1-3.1-6.9-4.7-11.4-4.7c-4.4,0-8.2,1.6-11.4,4.7c-3.1,3.2-4.7,6.9-4.7,11.4
		c0,4.4,1.6,8.2,4.7,11.3c3.1,3.1,6.9,4.7,11.4,4.7c4.4,0,8.2-1.6,11.4-4.7C39.3,40.6,40.8,37.8,41.4,34.8z"/>
	<path class="st0" d="M52.1,15.3h3.2v0.8c2-1.9,4.3-2.9,7.1-2.9c2.9,0,5.3,1,7.3,3c0.5,0.5,1,1.1,1.4,1.8c0.4-0.6,0.9-1.2,1.5-1.8
		c2-2,4.4-3,7.3-3c2.9,0,5.3,1,7.3,3c1.9,1.9,2.9,4.3,3,7V50h-3.2V23.2h0c-0.1-1.8-0.8-3.4-2.1-4.7c-1.4-1.4-3.1-2.1-5-2.1
		c-2,0-3.7,0.7-5.1,2.1c-1.4,1.4-2.1,3.1-2.1,5.2V50h-3.2V23.2h0c-0.1-1.8-0.8-3.4-2.1-4.7c-1.4-1.4-3.1-2.1-5-2.1
		c-1.9,0-3.6,0.7-5,2.1c-1.2,1.2-1.9,2.7-2.1,4.4V50h-3.2V15.3z"/>
	<path class="st0" d="M99.6,29.8c-0.1,0.6-0.1,1.2-0.1,1.8c0,4.4,1.6,8.2,4.7,11.3c3.1,3.1,6.9,4.7,11.4,4.7c4.4,0,8.2-1.6,11.4-4.7
		c0.5-0.5,1-1.1,1.5-1.7l3.4,1.2c-0.4,0.7-1.2,1.6-2.5,2.9c-3.8,3.8-8.4,5.7-13.8,5.7c-5.3,0-9.9-1.9-13.7-5.7
		c-3.8-3.8-5.7-8.4-5.7-13.7c0-5.4,1.9-10,5.7-13.8c3.8-3.8,8.4-5.7,13.7-5.7c5.4,0,10,1.9,13.8,5.7c3.3,3.4,5,7.4,5,12H99.6z
		 M100.2,26.6h30.5c-0.7-2.4-2-4.5-3.8-6.3c-3.1-3.1-6.9-4.7-11.4-4.7c-4.4,0-8.2,1.6-11.4,4.7C102.3,22.2,101,24.3,100.2,26.6z"/>
	<path class="st0" d="M152.1,18.1c-1.7,0.3-3.5,1.4-5.3,3.2c-3,3-4.6,6.6-4.7,10.8V50h-3.2V15.3h3.2v6.3c0.6-0.9,1.4-1.8,2.3-2.7
		c1.9-1.9,3.9-3.2,5.9-3.9L152.1,18.1z"/>
	<path class="st0" d="M160.6,3.9c0.6,0.6,0.9,1.3,0.9,2.2c0,0.9-0.3,1.7-0.9,2.3c-0.6,0.6-1.4,0.9-2.2,0.9c-0.9,0-1.6-0.3-2.3-0.9
		c-0.6-0.6-0.9-1.4-0.9-2.3c0-0.9,0.3-1.6,0.9-2.2c0.6-0.6,1.4-0.9,2.3-0.9C159.3,3,160,3.3,160.6,3.9z M160,15.3V50h-3.2V15.3H160z
		"/>
	<path class="st0" d="M198.7,41.7l3.4,1.2c-0.6,0.8-1.3,1.6-2.1,2.4c-3.8,3.8-8.4,5.7-13.8,5.7c-5.3,0-9.9-1.9-13.7-5.7
		c-3.8-3.8-5.7-8.4-5.7-13.8c0-5.4,1.9-9.9,5.7-13.7c3.8-3.8,8.4-5.7,13.7-5.7c5.4,0,10,1.9,13.8,5.7c0.8,0.8,1.5,1.6,2.1,2.4
		l-3.4,1.2c-0.3-0.4-0.7-0.9-1.1-1.3c-3.2-3.1-6.9-4.7-11.4-4.7c-4.4,0-8.2,1.6-11.3,4.7c-3.1,3.1-4.7,6.9-4.7,11.4
		c0,4.4,1.6,8.2,4.7,11.4c3.1,3.1,6.9,4.7,11.3,4.7c4.4,0,8.2-1.6,11.4-4.7C198,42.5,198.4,42.1,198.7,41.7z"/>
	<path class="st0" d="M245.5,50h-3.2V43c-0.6,0.8-1.3,1.6-2,2.4c-3.8,3.8-8.4,5.7-13.8,5.7c-5.3,0-9.9-1.9-13.7-5.7
		c-3.8-3.8-5.7-8.4-5.7-13.7c0-5.4,1.9-10,5.7-13.8c3.8-3.8,8.4-5.7,13.7-5.7c5.4,0,10,1.9,13.8,5.7c0.7,0.7,1.4,1.5,2,2.4v-4.9h3.2
		V50z M242.3,34.8v-6.3c-0.6-3.1-2.1-5.9-4.4-8.2c-3.1-3.1-6.9-4.7-11.4-4.7c-4.4,0-8.2,1.6-11.4,4.7c-3.1,3.2-4.7,6.9-4.7,11.4
		c0,4.4,1.6,8.2,4.7,11.3c3.1,3.1,6.9,4.7,11.4,4.7c4.4,0,8.2-1.6,11.4-4.7C240.3,40.6,241.8,37.8,242.3,34.8z"/>
	<path class="st0" d="M256.3,23.1v27h-3.2V15.3h3.2v2.2c2.9-2.9,6.2-4.3,10.1-4.3c4.1,0,7.5,1.3,10,3.9c2.6,2.6,3.9,5.8,3.9,9.7V50
		h-3.2V27.1c0-3-1.1-5.5-3.2-7.6c-2.1-2.1-4.7-3.1-7.6-3.1c-2.9,0-5.4,1-7.6,3.1C257.7,20.6,256.8,21.8,256.3,23.1z"/>
	<path class="st0" d="M217,108.1c-3.5,3.3-8,4.9-13.5,4.9c-5.5,0-10.2-1.9-14.1-5.8c-3.9-3.9-5.8-8.6-5.8-14.1
		c0-5.5,1.9-10.2,5.8-14.1c3.9-3.9,8.6-5.8,14.1-5.8c5.5,0,10.1,1.7,13.9,5.1v-2.1h5.6v27.2c0,5.4-1.9,9.9-5.7,13.7
		c-3.9,3.9-8.6,5.9-14.1,5.9c-5.5,0-10.2-2-14.1-5.9c-0.8-0.8-1.8-2-3.1-3.8l5.7-2.1c0.7,0.9,1.2,1.5,1.6,1.8
		c2.7,2.8,6.1,4.2,10,4.2c3.9,0,7.1-1.1,9.5-3.2C215.2,111.7,216.6,109.8,217,108.1z M217.3,90c-0.5-2.6-1.8-4.9-3.8-7
		c-2.8-2.8-6.1-4.2-10-4.2c-3.9,0-7.2,1.4-10,4.2c-2.8,2.8-4.1,6.1-4.1,10c0,3.9,1.4,7.3,4.1,10c2.7,2.8,6.1,4.1,10,4.1
		c3.9,0,7.2-1.4,10-4.2c2-2,3.2-4.3,3.8-6.8V90z"/>
	<path class="st0" d="M244.4,112.5c-4.5,0-8.2-1.4-10.9-4.1c-2.7-2.7-4.1-6.1-4.2-10.3V76.1h5.6v21.8c0,2.5,0.9,4.6,2.7,6.3
		c1.8,1.8,4,2.7,6.7,2.7c2.5,0,4.6-0.9,6.4-2.6c1.8-1.8,2.7-3.9,2.7-6.4V76.1h5.6v22.1c-0.1,4.1-1.5,7.6-4.2,10.3
		C252.1,111.2,248.7,112.5,244.4,112.5z"/>
	<path class="st0" d="M270.6,76.1V61.9h5.6v14.2h6.8v5.6h-6.8V112h-5.6V81.8h-6.8v-5.6H270.6z"/>
</g>
<g>
	<path class="st1" d="M163.2,118.6l0-2.4l-6.5,0l0,2.4c0,1.4,0.6,2.4,1.5,2.9l3.3,0C162.5,120.9,163.2,120,163.2,118.6z"/>
	<path class="st1" d="M170.9,118.6v-2.4h-6.5v2.4c0,1.4,0.7,2.4,1.6,2.9h3.4C170.2,120.9,170.9,120,170.9,118.6z"/>
	<rect x="164.3" y="110.9" class="st2" width="6.5" height="5.3"/>
	<rect x="156.7" y="110.9" class="st2" width="6.5" height="5.3"/>
	<rect x="164.3" y="105.6" class="st1" width="6.5" height="5.3"/>
	<rect x="156.7" y="105.6" class="st1" width="6.5" height="5.3"/>
	<rect x="156.7" y="100.3" class="st2" width="6.5" height="5.3"/>
	<rect x="164.3" y="100.3" class="st2" width="6.5" height="5.3"/>
	<rect x="156.7" y="95.4" class="st1" width="6.5" height="4.9"/>
	<rect x="164.3" y="95.4" class="st1" width="6.5" height="4.9"/>
	<path class="st2" d="M151.3,90.5h-4.1C148.1,91.8,150.3,92.1,151.3,90.5z"/>
	<path class="st2" d="M180.3,90.5h-4.1C177.2,92.1,179.4,91.8,180.3,90.5z"/>
	<polygon class="st2" points="156.7,90.5 156.7,95.4 163.2,95.4 163.2,93.6 164.3,93.6 164.3,95.4 170.9,95.4 170.9,90.5 	"/>
	<path class="st1" d="M180.5,88.3l-1-2.7h-5.2l1.6,4.4c0.1,0.2,0.2,0.4,0.3,0.6h4.1C180.7,89.9,180.9,89.1,180.5,88.3z"/>
	<path class="st1" d="M153.1,85.5H148l-1,2.7c-0.3,0.9-0.2,1.6,0.2,2.2h4.1c0.1-0.2,0.2-0.4,0.3-0.6L153.1,85.5z"/>
	<rect x="156.7" y="85.5" class="st1" width="14.2" height="4.9"/>
	<rect x="156.7" y="80.6" class="st2" width="14.2" height="4.9"/>
	<polygon class="st2" points="172.6,80.6 174.4,85.5 179.6,85.5 177.8,80.6 	"/>
	<polygon class="st2" points="149.7,80.6 148,85.5 153.1,85.5 154.9,80.6 	"/>
	<polygon class="st1" points="156.7,75.6 151.5,75.6 149.7,80.6 154.9,80.6 156.7,75.6 	"/>
	<rect x="156.7" y="75.6" class="st1" width="14.2" height="4.9"/>
	<polygon class="st1" points="170.9,75.6 170.9,75.6 172.6,80.6 177.8,80.6 176,75.6 	"/>
	<polygon class="st2" points="156.7,75.6 156.7,75.6 156.7,75.6 	"/>
	<polygon class="st2" points="170.9,75.6 170.9,75.6 170.9,75.6 	"/>
	<path class="st2" d="M174.1,70.7h-20.7c-0.3,0.4-0.5,0.9-0.7,1.4l-1.3,3.5h5.2l0,0v0h14.2v0l0,0h5.2l-1.3-3.5
		C174.6,71.6,174.4,71.1,174.1,70.7z"/>
	<path class="st1" d="M167.3,65.7h-7.1c1,0.8,2.2,1.3,3.6,1.3C165.1,67,166.4,66.5,167.3,65.7z"/>
	<path class="st1" d="M170.1,67.6h-12.7c-1.6,0.5-3,1.6-4,3.1h20.7C173.2,69.2,171.7,68.1,170.1,67.6z"/>
	<path class="st2" d="M169.4,61.4c0-0.2,0-0.4,0-0.6h-11.1c0,0.2,0,0.4,0,0.6c0,1.7,0.8,3.3,2,4.3h7.1
		C168.6,64.7,169.4,63.2,169.4,61.4z"/>
	<path class="st1" d="M163.8,55.9c-2.9,0-5.2,2.2-5.5,4.9h11.1C169,58,166.6,55.9,163.8,55.9z"/>
	<path class="st3" d="M163.8,55.9c-3.1,0-5.6,2.5-5.6,5.6c0,3.1,2.5,5.6,5.6,5.6c3.1,0,5.6-2.5,5.6-5.6
		C169.4,58.4,166.9,55.9,163.8,55.9z"/>
	<path class="st3" d="M180.5,88.3l-5.8-16.2c-0.8-2.2-2.6-3.9-4.6-4.5h-12.7c-2.1,0.7-3.8,2.3-4.6,4.5L147,88.3
		c-0.3,0.9-0.2,1.6,0.2,2.2h4.1c0.1-0.2,0.2-0.4,0.3-0.6l5.1-14.3l0,0v14.8h14.2V75.6l0,0l5.1,14.3c0.1,0.2,0.2,0.4,0.3,0.6h4.1
		C180.7,89.9,180.9,89.1,180.5,88.3z"/>
	<polygon class="st4" points="151.4,84.8 150.8,86.2 149.4,86.4 150.5,87.4 150.2,88.9 151.4,88.1 152.1,88.5 152.4,87.6 
		152.3,87.3 152.6,87.1 152.9,86.3 152,86.2 	"/>
	<polygon class="st4" points="160.5,86.2 159.9,84.8 159.4,86.2 157.9,86.4 159,87.4 158.7,88.9 160,88.1 161.2,88.8 160.9,87.3 
		162,86.3 	"/>
	<polygon class="st4" points="168.2,84.8 167.6,86.2 166.2,86.4 167.3,87.4 167,88.9 168.2,88.1 169.5,88.8 169.1,87.3 170.2,86.3 
		168.8,86.2 	"/>
	<polygon class="st4" points="177.7,88.8 177.4,87.3 178.5,86.3 177,86.2 176.4,84.8 175.9,86.2 174.7,86.3 174.8,86.7 175.5,87.4 
		175.3,88.2 175.5,88.7 176.5,88.1 	"/>
	<polygon class="st4" points="149.5,83 148.9,83 148.5,83.9 	"/>
	<polygon class="st4" points="148.4,84.2 148.1,85.1 148.7,85.5 	"/>
	<polygon class="st4" points="153.6,83.1 153.9,83.3 154,83 	"/>
	<polygon class="st4" points="157.7,83 156.7,82.9 156.7,84 	"/>
	<polygon class="st4" points="156.7,84.4 156.7,85.4 157,85.5 	"/>
	<polygon class="st4" points="150.2,81.9 151.4,81.1 152.7,81.9 152.3,80.4 153.4,79.4 152,79.3 151.4,77.9 150.8,79.3 150.1,79.4 
		149.9,80 150.5,80.4 	"/>
	<polygon class="st4" points="156.2,76 155.6,74.6 155.1,76 153.6,76.2 154.8,77.1 154.4,78.6 155.7,77.8 155.8,77.9 156.5,76 	"/>
	<polygon class="st4" points="157.7,76.1 156.7,76 156.7,77 	"/>
	<polygon class="st4" points="156.7,77.5 156.7,78.4 157,78.6 	"/>
	<polygon class="st4" points="152.3,73.5 153.4,72.5 152.6,72.4 151.9,74.5 152.7,75 	"/>
	<path class="st4" d="M154.4,71.7l1.2-0.8l1.3,0.8l-0.3-1.5l1.1-1l-1.5-0.1l-0.3-0.8c-0.2,0.1-0.4,0.3-0.6,0.4l-0.2,0.4l-0.4,0
		c-0.2,0.2-0.4,0.4-0.6,0.6l0.6,0.5L154.4,71.7z"/>
	<polygon class="st4" points="163.9,81.5 163.3,82.9 161.9,83.1 163,84.1 162.7,85.6 163.9,84.8 165.2,85.5 164.8,84 165.9,83 
		164.5,82.9 	"/>
	<polygon class="st4" points="160.5,79.3 159.9,77.9 159.4,79.3 157.9,79.5 159,80.4 158.7,81.9 160,81.1 161.2,81.9 160.9,80.4 
		162,79.4 	"/>
	<polygon class="st4" points="176.4,77.9 175.9,79.3 174.4,79.5 175.5,80.4 175.2,81.9 176.5,81.1 177.7,81.9 177.4,80.4 
		177.7,80.2 177.3,79.3 177,79.3 	"/>
	<polygon class="st4" points="168.2,77.9 167.6,79.3 166.2,79.5 167.3,80.4 167,81.9 168.2,81.1 169.5,81.9 169.1,80.4 170.2,79.4 
		168.8,79.3 	"/>
	<polygon class="st2" points="179.5,85.6 179.6,85.5 179.5,85.4 	"/>
	<polygon class="st2" points="178.7,83.1 178.7,83.1 178.7,83.1 	"/>
	<polygon class="st4" points="170.5,83.1 170.9,83.4 170.9,83 	"/>
	<polygon class="st4" points="173.5,82.9 173.7,83.7 174.5,83 	"/>
	<path class="st4" d="M158.7,61.2l1.2-0.8l1.3,0.8l-0.3-1.5l1.1-1l-1.5-0.1l-0.5-1.2c-0.1,0.1-0.2,0.2-0.3,0.2l-0.4,1l-0.4,0
		c-0.1,0.2-0.3,0.5-0.4,0.7l0.4,0.4L158.7,61.2z"/>
	<polygon class="st4" points="164.5,62.1 163.9,60.7 163.3,62.2 161.9,62.3 163,63.3 162.7,64.8 163.9,64 165.2,64.8 164.8,63.3 
		165.9,62.3 	"/>
	<path class="st4" d="M160.5,65.4l-0.6-1.4l-0.4,1c0.4,0.5,1,1,1.6,1.3l0.9-0.8L160.5,65.4z"/>
	<polygon class="st4" points="161.2,68.1 161.1,67.6 160.4,67.6 	"/>
	<polygon class="st4" points="159.5,67.6 158.8,67.6 158.7,68.1 	"/>
	<polygon class="st4" points="163.9,67.7 163.3,69.1 161.9,69.2 163,70.2 162.7,71.7 163.9,70.9 165.2,71.7 164.8,70.2 165.9,69.2 
		164.5,69.1 	"/>
	<polygon class="st4" points="160.5,72.4 159.9,71 159.4,72.4 157.9,72.5 159,73.5 158.7,75 160,74.2 161.2,75 160.9,73.5 162,72.5 
			"/>
	<polygon class="st4" points="163.9,74.6 163.3,76 161.9,76.2 163,77.1 162.7,78.6 163.9,77.8 165.2,78.6 164.8,77.1 165.9,76.1 
		164.5,76 	"/>
	<polygon class="st4" points="168.2,71 167.6,72.4 166.2,72.5 167.3,73.5 167,75 168.2,74.2 169.5,75 169.1,73.5 170.2,72.5 
		168.8,72.4 	"/>
	<path class="st4" d="M167.6,58.5l-1.5,0.2l1.1,1l-0.3,1.5l1.2-0.8l1.1,0.7c-0.1-1.3-0.6-2.4-1.4-3.3L167.6,58.5z"/>
	<path class="st4" d="M168.4,64.6l-0.2-0.5l-0.6,1.4l-1.5,0.2l0.6,0.5C167.4,65.7,168,65.2,168.4,64.6z"/>
	<polygon class="st4" points="167.8,67.6 167.1,67.6 167,68.1 	"/>
	<polygon class="st4" points="169.5,68.1 169.4,67.6 168.7,67.6 	"/>
	<polygon class="st4" points="173.8,78.6 173.4,77.1 174.5,76.1 173,76 172.5,74.6 171.9,76 171,76.1 171.3,76.9 171.6,77.1 
		171.5,77.4 171.8,78.3 172.5,77.8 	"/>
	<polygon class="st4" points="170.5,76.2 170.9,76.5 170.9,76.1 	"/>
	<path class="st4" d="M170.5,69.2l1.1,1l-0.3,1.5l1.2-0.8l1.3,0.8l-0.3-1.5l0.2-0.2c-0.4-0.6-1-1-1.5-1.4l-0.2,0.5L170.5,69.2z"/>
	<polygon class="st4" points="175.2,73.2 174.9,72.5 174.4,72.5 	"/>
	<polygon class="st4" points="175.2,75 175.7,74.7 175.4,73.9 	"/>
	<path id="path2457_13_" class="st5" d="M163.8,61.4"/>
</g>
<g>
	<g id="g2453_10_">
		<path id="path2455_10_" class="st6" d="M127.7,66.6c3.1,0,5.6-2.5,5.6-5.6c0-3.1-2.5-5.6-5.6-5.6c-3.1,0-5.6,2.5-5.6,5.6
			C122.1,64.1,124.6,66.6,127.7,66.6z"/>
		<path id="path2457_10_" class="st6" d="M127.7,61"/>
	</g>
	<path id="path2459_9_" class="st6" d="M134.8,75.2l5.1,14.3c1.1,3.1,5.7,1.5,4.6-1.6l-5.8-16.2c-0.8-2.2-2.6-3.9-4.6-4.5h-12.7
		c-2.1,0.7-3.8,2.3-4.6,4.5l-5.8,16.2c-1.1,3.1,3.5,4.8,4.6,1.6l5.1-14.3l0,0v43c0,4.5,6.5,4.3,6.5,0V93.2h1.1v24.9
		c0,4.3,6.5,4.5,6.5,0L134.8,75.2L134.8,75.2z"/>
</g>
<g>
	<g id="g2453_5_">
		<path id="path2455_5_" class="st7" d="M92.2,66.7c3.1,0,5.6-2.5,5.6-5.6c0-3.1-2.5-5.6-5.6-5.6c-3.1,0-5.6,2.5-5.6,5.6
			C86.6,64.2,89.1,66.7,92.2,66.7z"/>
		<path id="path2457_5_" class="st7" d="M92.2,61.1"/>
	</g>
	<path id="path2459_8_" class="st7" d="M99.3,75.3l5.1,14.3c1.1,3.1,5.7,1.5,4.6-1.6l-5.8-16.2c-0.8-2.2-2.6-3.9-4.6-4.5H85.8
		c-2.1,0.7-3.8,2.3-4.6,4.5l-5.8,16.2c-1.1,3.1,3.5,4.8,4.6,1.6l5.1-14.3l0,0v43c0,4.5,6.5,4.3,6.5,0V93.3h1.1v24.9
		c0,4.3,6.5,4.5,6.5,0L99.3,75.3L99.3,75.3z"/>
</g>
<g>
	<g id="g2453_4_">
		<path id="path2455_4_" class="st8" d="M56.7,66.6c3.1,0,5.6-2.5,5.6-5.6c0-3.1-2.5-5.6-5.6-5.6c-3.1,0-5.6,2.5-5.6,5.6
			C51.1,64.1,53.6,66.6,56.7,66.6z"/>
		<path id="path2457_4_" class="st8" d="M56.7,61"/>
	</g>
	<path id="path2459_7_" class="st8" d="M63.8,75.2l5.1,14.3c1.1,3.1,5.7,1.5,4.6-1.6l-5.8-16.2c-0.8-2.2-2.6-3.9-4.6-4.5H50.3
		c-2.1,0.7-3.8,2.3-4.6,4.5l-5.8,16.2c-1.1,3.1,3.5,4.8,4.6,1.6l5.1-14.3l0,0v43c0,4.5,6.5,4.3,6.5,0V93.2h1.1v24.9
		c0,4.3,6.5,4.5,6.5,0L63.8,75.2L63.8,75.2z"/>
</g>
<g>
	<g id="g2453_3_">
		<path id="path2455_3_" class="st9" d="M20.9,66.7c3.1,0,5.6-2.5,5.6-5.6c0-3.1-2.5-5.6-5.6-5.6c-3.1,0-5.6,2.5-5.6,5.6
			C15.3,64.2,17.8,66.7,20.9,66.7z"/>
		<path id="path2457_3_" class="st9" d="M20.9,61.1"/>
	</g>
	<path id="path2459_6_" class="st9" d="M28,75.3l5.1,14.3c1.1,3.1,5.7,1.5,4.6-1.6l-5.8-16.2c-0.8-2.2-2.6-3.9-4.6-4.5H14.5
		c-2.1,0.7-3.8,2.3-4.6,4.5L4.1,87.9c-1.1,3.1,3.5,4.8,4.6,1.6l5.1-14.3l0,0v43c0,4.5,6.5,4.3,6.5,0V93.3h1.1v24.9
		c0,4.3,6.5,4.5,6.5,0L28,75.3L28,75.3z"/>
</g>
<text transform="matrix(1 0 0 1 283.0264 18.3727)" class="st0 st10 st11">TM</text>
</svg>
